HIERARCHY
ROOT hip
{
	OFFSET 0.000000 0.000000 0.000000
	CHANNELS 6 Xposition Yposition Zposition Xrotation Yrotation Zrotation
	JOINT abdomen
	{
		OFFSET 0.0000 3.3100 -0.0000
		CHANNELS 3 Xrotation Yrotation Zrotation
		JOINT chest
		{
			OFFSET 0.0000 8.0660 -0.6050
			CHANNELS 3 Xrotation Yrotation Zrotation
			JOINT lCollar
			{
				OFFSET 2.8220 6.5116 -0.8157
				CHANNELS 3 Xrotation Yrotation Zrotation
				JOINT lShldr
				{
					OFFSET 3.1102 0.0000 0.0000
					CHANNELS 3 Xrotation Yrotation Zrotation
					JOINT lForeArm
					{
						OFFSET 10.9354 0.0000 0.0000
						CHANNELS 3 Xrotation Yrotation Zrotation
						JOINT lHand
						{
							OFFSET 9.5165 0.0000 0.0000
							CHANNELS 3 Xrotation Yrotation Zrotation
							End Site
							{
								OFFSET 2.3622 0.0000 0.0000
							}
						}
					}
				}
			}
			JOINT rCollar
			{
				OFFSET -2.8346 6.5116 -0.8157
				CHANNELS 3 Xrotation Yrotation Zrotation
				JOINT rShldr
				{
					OFFSET -3.1267 0.0000 0.0000
					CHANNELS 3 Xrotation Yrotation Zrotation
					JOINT rForeArm
					{
						OFFSET -10.9354 0.0000 0.0000
						CHANNELS 3 Xrotation Yrotation Zrotation
						JOINT rHand
						{
							OFFSET -9.5236 0.0000 0.0000
							CHANNELS 3 Xrotation Yrotation Zrotation
							End Site
							{
								OFFSET -2.3622 0.0000 0.0000
							}
						}
					}
				}
			}
		}
	}
}
MOTION
Frames: 37
Frame Time: 0.041667
0.0000 42.0084 0.0000 0.0000 0.0000 0.0000 0.0000 0.0000 0.0000 0.0000 0.0000 0.0000 0.0000 0.0000 0.0000 0.0000 0.0000 0.0000 0.0000 0.0000 0.0000 0.0000 0.0000 0.0000 0.0000 0.0000 0.0000 0.0000 0.0000 0.0000 0.0000 0.0000 0.0000 0.0000 0.0000 0.0000 
0.0000 42.0084 0.0000 0.0000 0.0000 0.0000 0.0000 0.0000 0.0000 0.0000 0.0000 0.0000 0.0000 0.0000 0.0000 0.0000 0.0000 0.0000 0.0000 -0.1146 0.0000 0.0000 0.0000 0.0000 0.0000 0.0000 0.0000 0.0000 0.0000 0.0000 0.0000 0.1146 0.0000 0.0000 0.0000 0.0000 
0.0000 42.0084 0.0000 0.0000 0.0000 0.0000 0.0000 0.0000 0.0000 0.0000 0.0000 0.0000 0.0023 -0.0017 -0.0760 0.0105 -0.0071 -0.2511 -0.0003 -0.1120 0.0381 0.0000 0.0000 0.0000 -0.0025 0.0015 0.0760 -0.0106 0.0070 0.2511 0.0026 0.1152 -0.0381 0.0000 0.0000 0.0000 
0.0000 42.0084 0.0000 0.0000 0.0000 0.0000 0.0000 0.0000 0.0000 0.0000 0.0000 0.0000 0.0093 -0.0069 -0.3056 0.0423 -0.0287 -1.0117 -0.0013 -0.1043 0.1532 0.0000 0.0000 0.0000 -0.0100 0.0060 0.3056 -0.0428 0.0280 1.0118 0.0105 0.1171 -0.1532 0.0000 0.0000 0.0000 
0.0000 42.0084 0.0000 0.0000 0.0000 0.0000 0.0000 0.0000 0.0000 0.0000 0.0000 0.0000 0.0210 -0.0156 -0.6902 0.0950 -0.0662 -2.2920 -0.0030 -0.0913 0.3458 0.0000 0.0000 0.0000 -0.0225 0.0134 0.6902 -0.0976 0.0623 2.2921 0.0236 0.1202 -0.3458 0.0000 0.0000 0.0000 
0.0000 42.0084 0.0000 0.0000 0.0000 0.0000 0.0000 0.0000 0.0000 0.0000 0.0000 0.0000 0.0373 -0.0280 -1.2291 0.1680 -0.1210 -4.0988 -0.0054 -0.0731 0.6156 0.0000 0.0000 0.0000 -0.0402 0.0237 1.2291 -0.1762 0.1086 4.0992 0.0421 0.1244 -0.6156 0.0000 0.0000 0.0000 
0.0000 42.0084 0.0000 0.0000 0.0000 0.0000 0.0000 0.0000 0.0000 0.0000 0.0000 0.0000 0.0580 -0.0440 -1.9192 0.2597 -0.1951 -6.4336 -0.0086 -0.0498 0.9610 0.0000 0.0000 0.0000 -0.0629 0.0367 1.9192 -0.2799 0.1648 6.4345 0.0658 0.1297 -0.9610 0.0000 0.0000 0.0000 
0.0000 42.0084 0.0000 0.0000 0.0000 0.0000 0.0000 0.0000 0.0000 0.0000 0.0000 0.0000 0.0828 -0.0638 -2.7543 0.3676 -0.2909 -9.2889 -0.0127 -0.0217 1.3786 0.0000 0.0000 0.0000 -0.0907 0.0520 2.7543 -0.4098 0.2277 9.2907 0.0944 0.1360 -1.3786 0.0000 0.0000 0.0000 
0.0000 42.0084 0.0000 0.0000 0.0000 0.0000 0.0000 0.0000 0.0000 0.0000 0.0000 0.0000 0.1113 -0.0872 -3.7246 0.4882 -0.4100 -12.6444 -0.0177 0.0109 1.8635 0.0000 0.0000 0.0000 -0.1232 0.0693 3.7248 -0.5661 0.2932 12.6477 0.1278 0.1429 -1.8635 0.0000 0.0000 0.0000 
0.0000 42.0084 0.0000 0.0000 0.0000 0.0000 0.0000 0.0000 0.0000 0.0000 0.0000 0.0000 0.1428 -0.1141 -4.8167 0.6167 -0.5540 -16.4634 -0.0236 0.0475 2.4088 0.0000 0.0000 0.0000 -0.1602 0.0880 4.8169 -0.7484 0.3565 16.4687 0.1653 0.1504 -2.4088 0.0000 0.0000 0.0000 
0.0000 42.0084 0.0000 0.0000 0.0000 0.0000 0.0000 0.0000 0.0000 0.0000 0.0000 0.0000 0.1768 -0.1442 -6.0126 0.7473 -0.7229 -20.6895 -0.0305 0.0875 3.0055 0.0000 0.0000 0.0000 -0.2011 0.1078 6.0130 -0.9545 0.4122 20.6977 0.2065 0.1583 -3.0056 0.0000 0.0000 0.0000 
0.0000 42.0084 0.0000 0.0000 0.0000 0.0000 0.0000 0.0000 0.0000 0.0000 0.0000 0.0000 0.2123 -0.1772 -7.2907 0.8738 -0.9152 -25.2456 -0.0384 0.1301 3.6430 0.0000 0.0000 0.0000 -0.2452 0.1280 7.2913 -1.1807 0.4550 25.2573 0.2506 0.1661 -3.6430 0.0000 0.0000 0.0000 
0.0000 42.0084 0.0000 0.0000 0.0000 0.0000 0.0000 0.0000 0.0000 0.0000 0.0000 0.0000 0.2487 -0.2125 -8.6257 0.9898 -1.1276 -30.0350 -0.0471 0.1746 4.3086 0.0000 0.0000 0.0000 -0.2918 0.1480 8.6265 -1.4213 0.4805 30.0507 0.2967 0.1738 -4.3086 0.0000 0.0000 0.0000 
0.0000 42.0084 0.0000 0.0000 0.0000 0.0000 0.0000 0.0000 0.0000 0.0000 0.0000 0.0000 0.2850 -0.2495 -9.9898 1.0900 -1.3545 -34.9452 -0.0565 0.2198 4.9885 0.0000 0.0000 0.0000 -0.3398 0.1673 9.9909 -1.6693 0.4857 34.9652 0.3439 0.1811 -4.9886 0.0000 0.0000 0.0000 
0.0000 42.0084 0.0000 0.0000 0.0000 0.0000 0.0000 0.0000 0.0000 0.0000 0.0000 0.0000 0.3204 -0.2873 -11.3540 1.1703 -1.5892 -39.8556 -0.0664 0.2650 5.6685 0.0000 0.0000 0.0000 -0.3883 0.1854 11.3554 -1.9169 0.4696 39.8797 0.3911 0.1878 -5.6686 0.0000 0.0000 0.0000 
0.0000 42.0084 0.0000 0.0000 0.0000 0.0000 0.0000 0.0000 0.0000 0.0000 0.0000 0.0000 0.3541 -0.3251 -12.6889 1.2291 -1.8240 -44.6453 -0.0767 0.3091 6.3342 0.0000 0.0000 0.0000 -0.4362 0.2021 12.6907 -2.1562 0.4336 44.6730 0.4375 0.1939 -6.3342 0.0000 0.0000 0.0000 
0.0000 42.0084 0.0000 0.0000 0.0000 0.0000 0.0000 0.0000 0.0000 0.0000 0.0000 0.0000 0.3856 -0.3620 -13.9669 1.2666 -2.0511 -49.2020 -0.0870 0.3512 6.9716 0.0000 0.0000 0.0000 -0.4824 0.2170 13.9690 -2.3802 0.3808 49.2326 0.4819 0.1992 -6.9717 0.0000 0.0000 0.0000 
0.0000 42.0084 0.0000 0.0000 0.0000 0.0000 0.0000 0.0000 0.0000 0.0000 0.0000 0.0000 0.4143 -0.3971 -15.1627 1.2852 -2.2638 -53.4288 -0.0971 0.3905 7.5685 0.0000 0.0000 0.0000 -0.5259 0.2300 15.1652 -2.5837 0.3161 53.4614 0.5236 0.2037 -7.5685 0.0000 0.0000 0.0000 
0.0000 42.0084 0.0000 0.0000 0.0000 0.0000 0.0000 0.0000 0.0000 0.0000 0.0000 0.0000 0.4399 -0.4298 -16.2546 1.2884 -2.4567 -57.2487 -0.1066 0.4264 8.1138 0.0000 0.0000 0.0000 -0.5658 0.2410 16.2575 -2.7630 0.2449 57.2823 0.5617 0.2074 -8.1139 0.0000 0.0000 0.0000 
0.0000 42.0084 0.0000 0.0000 0.0000 0.0000 0.0000 0.0000 0.0000 0.0000 0.0000 0.0000 0.4621 -0.4592 -17.2249 1.2806 -2.6260 -60.6053 -0.1154 0.4581 8.5988 0.0000 0.0000 0.0000 -0.6015 0.2502 17.2280 -2.9163 0.1725 60.6391 0.5956 0.2104 -8.5988 0.0000 0.0000 0.0000 
0.0000 42.0084 0.0000 0.0000 0.0000 0.0000 0.0000 0.0000 0.0000 0.0000 0.0000 0.0000 0.4808 -0.4848 -18.0598 1.2661 -2.7696 -63.4618 -0.1232 0.4855 9.0165 0.0000 0.0000 0.0000 -0.6323 0.2577 18.0633 -3.0433 0.1040 63.4951 0.6249 0.2128 -9.0165 0.0000 0.0000 0.0000 
0.0000 42.0084 0.0000 0.0000 0.0000 0.0000 0.0000 0.0000 0.0000 0.0000 0.0000 0.0000 0.4960 -0.5061 -18.7498 1.2490 -2.8863 -65.7977 -0.1298 0.5080 9.3618 0.0000 0.0000 0.0000 -0.6578 0.2635 18.7535 -3.1444 0.0433 65.8304 0.6491 0.2146 -9.3618 0.0000 0.0000 0.0000 
0.0000 42.0084 0.0000 0.0000 0.0000 0.0000 0.0000 0.0000 0.0000 0.0000 0.0000 0.0000 0.5076 -0.5229 -19.2886 1.2325 -2.9761 -67.6055 -0.1350 0.5256 9.6317 0.0000 0.0000 0.0000 -0.6778 0.2678 19.2924 -3.2209 -0.0064 67.6373 0.6680 0.2159 -9.6317 0.0000 0.0000 0.0000 
0.0000 42.0084 0.0000 0.0000 0.0000 0.0000 0.0000 0.0000 0.0000 0.0000 0.0000 0.0000 0.5159 -0.5350 -19.6731 1.2191 -3.0393 -68.8864 -0.1388 0.5381 9.8244 0.0000 0.0000 0.0000 -0.6921 0.2708 19.6771 -3.2742 -0.0431 68.9176 0.6815 0.2168 -9.8244 0.0000 0.0000 0.0000 
0.0000 42.0084 0.0000 0.0000 0.0000 0.0000 0.0000 0.0000 0.0000 0.0000 0.0000 0.0000 0.5208 -0.5422 -19.9027 1.2105 -3.0768 -69.6476 -0.1411 0.5456 9.9395 0.0000 0.0000 0.0000 -0.7007 0.2725 19.9068 -3.3054 -0.0655 69.6782 0.6895 0.2173 -9.9395 0.0000 0.0000 0.0000 
0.0000 42.0084 0.0000 0.0000 0.0000 0.0000 0.0000 0.0000 0.0000 0.0000 0.0000 0.0000 0.5224 -0.5446 -19.9786 1.2075 -3.0891 -69.8988 -0.1419 0.5481 9.9776 0.0000 0.0000 0.0000 -0.7035 0.2730 19.9828 -3.3157 -0.0729 69.9293 0.6922 0.2175 -9.9775 0.0000 0.0000 0.0000 
0.0000 42.0084 0.0000 0.0000 0.0000 0.0000 0.0000 0.0000 0.0000 0.0000 0.0000 0.0000 0.5208 -0.5422 -19.9027 1.2105 -3.0768 -69.6476 -0.1411 0.5456 9.9395 0.0000 0.0000 0.0000 -0.7007 0.2725 19.9068 -3.3054 -0.0655 69.6782 0.6895 0.2173 -9.9395 0.0000 0.0000 0.0000 
0.0000 42.0084 0.0000 0.0000 0.0000 0.0000 0.0000 0.0000 0.0000 0.0000 0.0000 0.0000 0.5159 -0.5350 -19.6731 1.2191 -3.0393 -68.8864 -0.1388 0.5381 9.8244 0.0000 0.0000 0.0000 -0.6921 0.2708 19.6771 -3.2742 -0.0431 68.9176 0.6815 0.2168 -9.8244 0.0000 0.0000 0.0000 
0.0000 42.0084 0.0000 0.0000 0.0000 0.0000 0.0000 0.0000 0.0000 0.0000 0.0000 0.0000 0.5076 -0.5229 -19.2886 1.2325 -2.9761 -67.6055 -0.1350 0.5256 9.6317 0.0000 0.0000 0.0000 -0.6778 0.2678 19.2925 -3.2209 -0.0064 67.6373 0.6680 0.2159 -9.6317 0.0000 0.0000 0.0000 
0.0000 42.0084 0.0000 0.0000 0.0000 0.0000 0.0000 0.0000 0.0000 0.0000 0.0000 0.0000 0.4960 -0.5061 -18.7498 1.2490 -2.8863 -65.7977 -0.1298 0.5080 9.3618 0.0000 0.0000 0.0000 -0.6578 0.2635 18.7535 -3.1444 0.0433 65.8304 0.6491 0.2146 -9.3618 0.0000 0.0000 0.0000 
0.0000 42.0084 0.0000 0.0000 0.0000 0.0000 0.0000 0.0000 0.0000 0.0000 0.0000 0.0000 0.4808 -0.4848 -18.0598 1.2661 -2.7696 -63.4618 -0.1232 0.4854 9.0165 0.0000 0.0000 0.0000 -0.6323 0.2577 18.0633 -3.0433 0.1040 63.4951 0.6249 0.2128 -9.0165 0.0000 0.0000 0.0000 
0.0000 42.0084 0.0000 0.0000 0.0000 0.0000 0.0000 0.0000 0.0000 0.0000 0.0000 0.0000 0.4621 -0.4592 -17.2249 1.2806 -2.6260 -60.6053 -0.1154 0.4581 8.5988 0.0000 0.0000 0.0000 -0.6015 0.2502 17.2280 -2.9163 0.1725 60.6391 0.5956 0.2104 -8.5988 0.0000 0.0000 0.0000 
0.0000 42.0084 0.0000 0.0000 0.0000 0.0000 0.0000 0.0000 0.0000 0.0000 0.0000 0.0000 0.4399 -0.4298 -16.2546 1.2884 -2.4567 -57.2487 -0.1066 0.4264 8.1138 0.0000 0.0000 0.0000 -0.5658 0.2410 16.2575 -2.7630 0.2449 57.2823 0.5617 0.2074 -8.1139 0.0000 0.0000 0.0000 
0.0000 42.0084 0.0000 0.0000 0.0000 0.0000 0.0000 0.0000 0.0000 0.0000 0.0000 0.0000 0.4143 -0.3971 -15.1627 1.2852 -2.2638 -53.4288 -0.0971 0.3905 7.5685 0.0000 0.0000 0.0000 -0.5259 0.2300 15.1652 -2.5837 0.3161 53.4614 0.5236 0.2037 -7.5685 0.0000 0.0000 0.0000 
0.0000 42.0084 0.0000 0.0000 0.0000 0.0000 0.0000 0.0000 0.0000 0.0000 0.0000 0.0000 0.3856 -0.3620 -13.9669 1.2666 -2.0511 -49.2020 -0.0870 0.3512 6.9716 0.0000 0.0000 0.0000 -0.4824 0.2170 13.9690 -2.3802 0.3808 49.2326 0.4819 0.1992 -6.9717 0.0000 0.0000 0.0000 
0.0000 42.0084 0.0000 0.0000 0.0000 0.0000 0.0000 0.0000 0.0000 0.0000 0.0000 0.0000 0.3541 -0.3251 -12.6889 1.2291 -1.8240 -44.6453 -0.0767 0.3091 6.3342 0.0000 0.0000 0.0000 -0.4362 0.2021 12.6907 -2.1562 0.4336 44.6730 0.4375 0.1939 -6.3342 0.0000 0.0000 0.0000 
0.0000 42.0084 0.0000 0.0000 0.0000 0.0000 0.0000 0.0000 0.0000 0.0000 0.0000 0.0000 0.3204 -0.2873 -11.3540 1.1703 -1.5892 -39.8556 -0.0664 0.2650 5.6685 0.0000 0.0000 0.0000 -0.3883 0.1854 11.3554 -1.9169 0.4696 39.8797 0.3911 0.1878 -5.6686 0.0000 0.0000 0.0000 
